<?xml version="1.0" standalone="no"?>
<!DOCTYPE svg PUBLIC "-//W3C//DTD SVG 20010904//EN"
 "http://www.w3.org/TR/2001/REC-SVG-20010904/DTD/svg10.dtd">
<svg version="1.0" xmlns="http://www.w3.org/2000/svg"
 width="354.000000pt" height="592.000000pt" viewBox="0 0 354.000000 592.000000"
 preserveAspectRatio="xMidYMid meet">

<g transform="translate(0.000000,592.000000) scale(0.100000,-0.100000)"
fill="#000000" stroke="none">
<path d="M1544 5906 c-236 -33 -469 -116 -665 -237 -130 -81 -183 -122 -297
-233 -262 -253 -430 -540 -517 -881 -47 -183 -59 -293 -59 -505 0 -246 29
-415 108 -632 77 -210 236 -510 536 -1013 325 -544 451 -777 585 -1080 169
-383 276 -722 373 -1190 l27 -130 140 -3 140 -3 29 153 c105 562 301 1093 611
1663 54 99 206 360 337 580 308 514 505 907 573 1140 52 181 69 304 69 510 0
108 -5 231 -13 285 -87 616 -453 1140 -976 1400 -163 81 -278 120 -452 156
-157 31 -398 40 -549 20z m487 -355 c290 -58 527 -188 733 -401 200 -207 335
-459 395 -735 45 -204 50 -429 15 -630 -45 -260 -201 -591 -566 -1200 -270
-451 -374 -637 -498 -890 -132 -270 -293 -660 -326 -789 -9 -37 -17 -26 -49
74 -70 213 -195 509 -325 770 -111 222 -197 374 -458 812 -325 545 -488 860
-547 1059 -128 427 -59 920 183 1294 236 366 603 603 1014 655 106 13 318 4
429 -19z"/>
<path d="M1692 4550 c-78 -12 -189 -69 -249 -128 -185 -184 -190 -469 -11
-658 93 -99 200 -144 338 -144 138 0 245 45 338 144 179 189 174 475 -11 657
-105 103 -257 152 -405 129z"/>
</g>
</svg>
